<svg width="156" height="141" viewBox="0 0 156 141" fill="none" xmlns="http://www.w3.org/2000/svg">
<path fill-rule="evenodd" clip-rule="evenodd" d="M15.0088 132.671C24.3211 121.339 45.8734 98.3848 71.8879 72.2645C72.8755 71.268 73.8764 70.2671 74.8773 69.2618C78.5752 65.564 82.2084 61.9572 85.7769 58.4416C109.931 34.6317 130.447 15.5927 140.01 8C132.643 17.3784 113.59 37.9254 89.6615 62.2159C86.0371 65.8961 82.3054 69.6557 78.4664 73.4947L75.8474 76.1094C51.0719 100.801 26.9843 122.543 15 132.671" fill="#05AF7E"/>
<path fill-rule="evenodd" clip-rule="evenodd" d="M118.361 20.4648L82.5803 55.3683L68.5458 69.0369L23.0337 113.447C33.0603 99.928 47.8047 83.3405 65.4637 66.0871L55.296 56.2678L32.5532 34.2922H60.7723L69.5907 42.8196L79.732 52.6169C92.0612 41.2587 104.954 30.5278 118.361 20.4648Z" fill="#05AF7E"/>
<path fill-rule="evenodd" clip-rule="evenodd" d="M106.187 77.9083L128.718 99.6547H100.499L91.8528 91.3036L81.7116 81.5063C69.8816 92.2295 58.3647 101.789 47.8223 109.787L79.2909 79.1341L93.3211 65.4655L138.375 21.4966C128.061 35.0153 113.396 51.2722 96.046 68.0846L106.187 77.9083Z" fill="#379BFB"/>
</svg>
